<svg xmlns="http://www.w3.org/2000/svg" viewBox="0 0 32 32" width="32" height="32">
  <rect width="32" height="32" fill="#1e40af" rx="4"/>
  <path d="M8 20c0 1.1.9 2 2 2s2-.9 2-2-.9-2-2-2-2 .9-2 2zm12 0c0 1.1.9 2 2 2s2-.9 2-2-.9-2-2-2-2 .9-2 2z" fill="white"/>
  <path d="M26 18h-2.5l-1.5-4h-12l-1.5 4H6c-1.1 0-2 .9-2 2v4c0 1.1.9 2 2 2h20c1.1 0 2-.9 2-2v-4c0-1.1-.9-2-2-2z" fill="white"/>
  <path d="M8 22c-1.1 0-2-.9-2-2s.9-2 2-2 2 .9 2 2-.9 2-2 2zm16 0c-1.1 0-2-.9-2-2s.9-2 2-2 2 .9 2 2-.9 2-2 2z" fill="#1e40af"/>
</svg> 